<?xml version="1.0" standalone="no"?>
<!DOCTYPE svg PUBLIC "-//W3C//DTD SVG 20010904//EN"
 "http://www.w3.org/TR/2001/REC-SVG-20010904/DTD/svg10.dtd">
<svg version="1.0" xmlns="http://www.w3.org/2000/svg"
 width="562pt" height="1000pt" viewBox="0 0 562 1000"
 preserveAspectRatio="xMidYMid meet">
<metadata>
Created by potrace 1.9, written by Peter Selinger 2001-2010
</metadata>
<g transform="translate(0,1000) scale(0.100000,-0.100000)"
fill="#000000" stroke="none">
<path d="M238 4123 c-46 -29 -53 -56 -51 -182 2 -136 23 -282 63 -441 204
-811 885 -1420 1715 -1534 254 -35 315 -38 353 -18 19 10 43 33 54 52 17 33
18 82 18 1035 0 950 -1 1002 -18 1034 -10 19 -34 43 -53 53 -32 17 -84 18
-1044 18 -924 -1 -1012 -2 -1037 -17z m1902 -1078 l0 -845 -41 0 c-148 0 -422
74 -627 170 -358 168 -694 504 -862 862 -94 202 -170 479 -170 622 l0 36 850
0 850 0 0 -845z"/>
</g>
<g transform="translate(49,1000) scale(0.100000,-0.100000)"
fill="#000000" stroke="none">
<path d="M251 8042 c-36 -19 -71 -73 -71 -107 1 -51 46 -108 234 -295 l196
-195 -204 -205 c-211 -212 -236 -248 -221 -307 16 -67 79 -110 143 -98 31 5
71 41 249 218 l213 211 207 -206 c218 -215 248 -237 313 -223 39 8 87 56 95
95 13 60 -8 88 -225 305 l-210 210 214 215 c180 180 216 221 221 252 12 64
-31 127 -98 143 -60 15 -94 -10 -310 -224 l-207 -206 -208 207 c-237 237 -257
250 -331 210z"/>
</g>
<g transform="translate(306,1000) scale(0.100000,-0.100000)"
fill="#000000" stroke="none">
<path d="M265 6092 c-99 -35 -118 -168 -32 -222 12 -7 90 -18 178 -26 182 -15
201 -18 329 -50 329 -82 604 -238 850 -484 246 -246 401 -519 485 -850 39
-155 49 -245 49 -440 0 -195 -10 -285 -49 -440 -84 -331 -239 -604 -485 -850
-246 -246 -521 -402 -850 -484 -128 -32 -147 -35 -329 -50 -88 -8 -166 -19
-178 -26 -73 -46 -70 -172 5 -212 34 -18 225 -14 362 7 458 71 853 269 1170
585 392 392 604 908 604 1470 0 562 -212 1078 -604 1470 -316 315 -715 515
-1165 584 -118 18 -312 28 -340 18z"/>
</g>
</svg>
