<?xml version="1.0" standalone="no"?>
<!DOCTYPE svg PUBLIC "-//W3C//DTD SVG 20010904//EN"
 "http://www.w3.org/TR/2001/REC-SVG-20010904/DTD/svg10.dtd">
<!--<svg version="1.0" xmlns="http://www.w3.org/2000/svg"
 width="746pt" height="1000pt" viewBox="0 0 746 1000"
 preserveAspectRatio="xMidYMid meet">-->
<svg version="1.0" xmlns="http://www.w3.org/2000/svg"
 width="1767pt" height="1000pt" viewBox="0 0 1767 1000"
 preserveAspectRatio="xMidYMid meet">
<g transform="translate(0,1000) scale(0.100000,-0.100000)"
fill="#000000" stroke="none">
<path d="M2205 6081 c-57 -27 -1988 -1962 -2010 -2013 -13 -33 -15 -161 -15
-1035 0 -948 1 -1000 18 -1032 10 -19 34 -43 53 -53 32 -17 115 -18 2014 -18
1899 0 1982 1 2014 18 19 10 43 34 53 53 17 32 18 84 18 1032 0 834 -2 1003
-14 1030 -18 42 -1991 2013 -2029 2027 -39 14 -56 13 -102 -9z m977 -1208
l918 -918 0 -887 0 -888 -1835 0 -1835 0 0 892 0 893 912 912 c502 502 915
913 918 913 3 0 418 -413 922 -917z"/>
<path d="M6132 6084 c-18 -9 -41 -29 -51 -43 -41 -57 -991 -1973 -996 -2008
-16 -104 101 -175 190 -117 20 13 134 232 467 898 l440 881 438 -874 c321
-643 445 -881 466 -898 78 -62 184 -20 201 81 4 27 -69 179 -500 1042 -384
769 -512 1015 -532 1028 -39 25 -85 29 -123 10z"/>
<path d="M6132 4124 c-18 -9 -41 -29 -51 -43 -41 -57 -991 -1973 -996 -2008
-16 -104 101 -175 190 -117 20 13 134 232 467 898 l440 881 438 -874 c321
-643 445 -881 466 -898 78 -62 184 -20 201 81 4 27 -69 179 -500 1042 -384
769 -512 1015 -532 1028 -39 25 -85 29 -123 10z"/>
</g>
<text font-family="Verdana" font-size="400" fill="black" >
    <tspan x="796" y="805">
      K
    </tspan>
</text>
<g transform="translate(1119,1000) scale(0.100000,-0.100000)"
fill="#000000" stroke="none">
<path d="M1721 8042 c-47 -25 -74 -76 -66 -125 3 -21 118 -263 255 -537 272
-544 273 -545 355 -545 78 1 77 -2 357 559 278 556 274 547 233 609 -23 35
-79 60 -118 53 -66 -13 -82 -38 -282 -436 l-193 -385 -195 391 c-143 286 -202
395 -222 408 -41 27 -85 30 -124 8z"/>
<path d="M2115 6094 c-684 -55 -1279 -418 -1631 -994 -199 -327 -298 -686
-298 -1080 0 -204 15 -323 64 -520 204 -811 885 -1420 1715 -1534 277 -38 312
-38 590 0 752 103 1394 621 1655 1334 56 155 120 448 120 554 l0 36 772 0 773
0 -387 -387 c-405 -408 -418 -423 -403 -493 8 -39 56 -87 95 -95 16 -4 45 -2
63 4 22 8 186 165 544 523 544 546 538 538 514 611 -8 22 -165 186 -523 544
-445 444 -518 513 -550 518 -64 12 -127 -31 -143 -98 -17 -64 1 -86 403 -489
l387 -388 -773 0 -772 0 0 41 c0 110 -63 401 -120 559 -101 276 -275 546 -489
759 -372 369 -872 581 -1407 595 -82 2 -171 2 -199 0z m25 -2074 l0 -1820 -41
0 c-193 0 -553 115 -772 246 -240 145 -495 400 -640 641 -111 184 -202 440
-238 668 -16 103 -16 427 0 530 36 228 127 484 237 668 146 242 399 495 641
641 218 130 561 241 761 245 l52 1 0 -1820z m393 1809 c215 -32 478 -126 660
-235 297 -179 575 -484 717 -786 96 -205 170 -479 170 -627 l0 -41 -845 0
-845 0 0 850 0 850 36 0 c19 0 68 -5 107 -11z m1547 -1975 c0 -143 -76 -420
-170 -622 -168 -358 -504 -694 -862 -862 -202 -94 -479 -170 -622 -170 l-36 0
0 845 0 845 845 0 845 0 0 -36z"/>
</g>
</svg>
