<?xml version="1.0" encoding="utf-8"?>
<!DOCTYPE svg PUBLIC "-//W3C//DTD SVG 1.1//EN" "http://www.w3.org/Graphics/SVG/1.1/DTD/svg11.dtd">
<svg version="1.1" id="BlissKom" xmlns="http://www.w3.org/2000/svg" xmlns:xlink="http://www.w3.org/1999/xlink" x="0px" y="0px"
	 width="1500px" height="1000px" viewBox="0 0 1500 1000" enable-background="new 0 0 1500 1000" xml:space="preserve">
<!-- dropshadow filter based on http://dahlström.net/svg/filters/arrow-with-dropshadow-lighter.svg funkar bara för android 4.4+... -->
<filter id="dropshadow" height="130%">
  <feGaussianBlur in="SourceAlpha" stdDeviation="3"/>
  <feOffset dx="2" dy="2" result="offsetblur"/>
  <feComponentTransfer>
      <feFuncA type="linear" slope="0.5"/>
  </feComponentTransfer>
  <feMerge> 
    <feMergeNode/>
    <feMergeNode in="SourceGraphic"/>
  </feMerge>
</filter>
<g fill="#404040" style="filter:url(#dropshadow);">
	<path display="none" fill-rule="evenodd" clip-rule="evenodd" fill="#FFFFFF" d="M1,67c400,0,800,0,1200,0c0,300,0,600,0,900
		c-400,0-800,0-1200,0C1,667,1,367,1,67z M284.171,479.334c11.362-11.515,22.932-22.319,33.416-34.09
		c14.605-16.398,27.113-34.35,33.037-55.907c6.208-22.592-1.609-38.984-22.5-49.563c-14.523-7.354-30.094-9.859-45.978-9.636
		c-17.11,0.241-34.292,1.079-51.281,3.051c-25.965,3.015-50.745,10.715-74.093,22.582c-3.101,1.576-6.003,4.289-7.973,7.174
		c-3.176,4.652-0.514,9.65,5.101,9.948c3.264,0.173,6.635-0.391,9.864-1.068c20.047-4.201,39.958-9.179,60.131-12.621
		c18.235-3.111,36.79-4.458,55.231-1.153c21.253,3.81,32.299,19.543,29.475,40.857c-2.483,18.735-11.426,34.242-23.529,48.188
		c-11.377,13.11-23.989,24.568-41.437,29.104c-1.104,0.287-2.153,0.902-3.143,1.503c-4.442,2.701-4.851,7.104-0.5,9.943
		c2.707,1.767,6.03,2.729,9.2,3.605c3.359,0.927,6.888,1.224,10.304,1.971c12.42,2.717,24.596,6.116,35.218,13.517
		c8.224,5.73,13.673,13.249,13.952,23.569c0.409,15.166-3.804,28.946-13.368,40.89c-14.176,17.704-33.476,27.464-54.232,35.03
		c-3.222,1.175-5.433,0.851-8.083-1.43c-17.035-14.652-31.849-31.29-44.529-49.785c-30.646-44.703-46.844-94.649-53.129-148.103
		c-1.225-10.418-1.543-20.956-3.058-31.325c-1.873-12.821-10.372-19.326-23.297-18.85c-13.876,0.511-30.097,13.321-33.571,26.77
		c-0.734,2.842-1.102,5.967-0.781,8.866c4.674,42.226,16.38,82.449,34.518,120.856c23.338,49.421,55.461,91.739,100.662,123.126
		c11.282,7.834,23.9,13.831,36.218,20.051c7.486,3.78,16.096,1.31,20.782-4.716c4.609-5.928,4.523-14.046-1.078-20.711
		c-3.159-3.758-7.32-6.717-11.218-9.797c-3.553-2.808-7.36-5.292-10.693-7.662c12.843-5.26,25.486-9.583,37.344-15.483
		c20.34-10.12,36.606-25.015,46.66-45.71c10.851-22.334,4.9-45.33-15.358-59.653c-5.642-3.989-12.166-6.78-18.434-9.813
		C290.788,481.296,287.23,480.406,284.171,479.334z M920.676,523.778c-1.042-2.314-1.596-4.03-2.523-5.513
		c-2.633-4.205-4.932-8.764-8.255-12.355c-5.004-5.407-12.114-5.561-17.307-0.387c-3.215,3.203-6.168,7.186-7.788,11.38
		c-5.087,13.167-9.592,26.565-14.117,39.943c-3.022,8.935-3.497,18.021,0.414,26.832c3.199,7.208,8.859,11.988,16.805,12.422
		c7.663,0.419,12.01-4.658,14.706-11.374c5.632-14.029,13.696-26.58,23.426-38.093c1.425-1.686,3.017-3.229,4.53-4.839
		c-0.432,4.342-2.191,7.976-2.956,11.807c-1.513,7.592-3.451,15.297-3.411,22.945c0.047,8.923,4.336,16.325,13.057,20.244
		c7.621,3.426,14.708,1.024,18.563-6.341c3.388-6.474,6.117-13.374,10.146-19.414c6.348-9.515,13.433-18.55,20.499-27.558
		c0.997-1.271,3.65-1.246,5.537-1.82c-0.158,1.984,0.45,4.68-0.613,5.828c-3.798,4.1-8.201,7.635-12.293,11.472
		c-1.391,1.304-3.167,2.668-3.697,4.343c-3.524,11.131,0.756,22.93,10.53,29.317c11.048,7.22,23.297,8.8,35.963,6.402
		c3.142-0.595,7.523-3.1,8.321-5.664c1.257-4.04-3.063-6.422-6.468-8.331c-0.29-0.162-0.593-0.321-0.908-0.415
		c-6.098-1.806-9.833-6.382-13.683-11.071c-3.329-4.054-3.315-7.189-0.157-11.459c5.227-7.065,10.476-14.306,14.281-22.167
		c2.571-5.313,3.304-11.774,3.725-17.802c0.461-6.594-5.343-12.906-11.93-13.818c-10.268-1.422-19.312,2.001-27.474,7.958
		c-4.046,2.953-7.83,6.265-12.07,9.687c-1.686-4.127-2.532-7.453-4.269-10.223c-5.989-9.555-10.715-13.466-18.386-11.139
		c-9.391,2.848-18.421,6.689-25.618,13.814C925.419,520.209,923.249,521.691,920.676,523.778z M673.683,545.422
		c0.418,0.082,0.837,0.162,1.255,0.244c0.349,1.52,0.67,3.046,1.051,4.557c2.07,8.203,3.361,16.707,6.381,24.544
		c9.477,24.593,36.328,34.296,58.727,21.316c3.194-1.851,6.342-5.994,6.848-9.466c0.319-2.188-4.178-5.244-6.752-7.657
		c-5.167-4.843-11.379-8.845-15.578-14.392c-8.918-11.781-14.5-25.359-18.162-39.711c-1.102-4.32,0.032-7.613,3.577-10.006
		c4.413-2.979,8.999-5.701,13.478-8.586c7.271-4.682,15.018-8.808,21.596-14.322c4.385-3.675,8.142-8.931,10.285-14.243
		c2.811-6.966-2.332-12.906-9.779-11.877c-5.179,0.715-10.527,2.173-15.154,4.554c-14.507,7.465-26.662,18.009-37.144,30.481
		c-2.16,2.571-4.21,5.235-6.311,7.856c-0.566-0.478-1.132-0.954-1.698-1.431c0.417-1.556,0.761-3.134,1.261-4.661
		c2.744-8.391,5.569-16.755,8.282-25.156c2.511-7.774-1.715-14.171-9.871-13.754c-6.216,0.318-12.469,1.803-18.486,3.531
		c-5.131,1.473-8.768,5.187-10.806,10.335c-4.096,10.348-8.873,20.463-12.352,31.009c-7.071,21.433-13.559,43.061-20.078,64.671
		c-1.625,5.388-2.918,10.964-3.538,16.545c-0.743,6.686,3.724,11.223,9.889,9.629c9.4-2.43,18.732-5.971,23.747-15.132
		c4.834-8.831,8.739-18.167,13.156-27.23C669.432,553.123,671.616,549.301,673.683,545.422z M153.032,264.983
		c0.037-18.05-3.166-31.201-9.112-40.622c-4.114-6.518-9.418-11.568-17.185-13.533c-12.802-3.239-23.175,1.488-31.239,10.812
		c-20.761,24.002-26.37,51.867-19.276,82.48c0.851,3.671,2.567,7.21,4.297,10.599c10.544,20.659,31.464,24.057,48.12,7.937
		C146.025,305.828,151.906,284.452,153.032,264.983z M510.356,494.327c-0.104-0.484-0.208-0.968-0.313-1.452
		c-6.815,1.826-13.9,2.988-20.387,5.622c-11.616,4.716-21.854,18.142-20.598,30.691c1.077,10.754,7.158,18.438,14.97,24.973
		c6.304,5.273,12.396,10.618,15.859,18.279c2.641,5.842,1.669,13.131-1.833,14.567c-4.417,1.812-8.243-1.457-10.904-9.064
		c-1.311-3.748-2.609-7.557-4.469-11.042c-2.138-4.006-5.926-4.6-9.94-3.092c-2.303,0.865-4.441,2.176-6.634,3.322
		c-9.85,5.151-9.822,13.599-3.241,19.805c4.803,4.529,9.785,9.164,15.451,12.423c11.908,6.85,23.961,6.863,35.653-1.361
		c17.715-12.46,21.43-34.661,8.021-50.452c-2.873-3.383-6.359-6.294-9.804-9.131c-8.584-7.068-11.899-16.643-8.03-24.558
		c0.732-1.498,2.307-3.387,3.663-3.534c1.175-0.128,3.503,1.787,3.745,3.092c1.103,5.943,1.566,12.002,2.447,17.992
		c0.26,1.767,0.664,4.3,1.844,4.947c1.55,0.852,4.614,1.018,5.835,0.02c4.077-3.331,8.457-6.787,11.202-11.152
		c6.135-9.756,3.454-20.008-6.004-26.648C521.93,495.091,516.458,493.519,510.356,494.327z M593.358,494.22
		c-10.262-0.759-19.074,1.834-26.692,7.153c-15.54,10.852-22.001,28.826-7.277,45.635c4.686,5.35,10.464,9.727,15.429,14.853
		c5.173,5.341,9.437,11.392,8.621,19.353c-0.206,2.013-1.739,5.133-3.2,5.479c-2.126,0.506-5.53-0.319-6.959-1.884
		c-2.131-2.331-3.068-5.777-4.416-8.793c-1.351-3.022-2.317-6.248-3.928-9.116c-2.225-3.961-5.929-4.631-9.938-3.084
		c-2.446,0.943-4.809,2.212-7.027,3.621c-8.837,5.62-10.277,11.589-3,19.032c5.815,5.948,12.844,11.068,20.136,15.107
		c6.827,3.782,15.132,4.079,22.4,1.146c26.901-10.857,32.861-41.095,13.325-58.874c-4.409-4.012-8.878-8.039-12.721-12.568
		c-4.581-5.396-3.988-11.766-1.454-17.916c0.553-1.342,2.212-2.953,3.477-3.058c1.127-0.093,3.264,1.565,3.483,2.729
		c1.117,5.924,1.671,11.951,2.611,17.912c0.302,1.917,0.67,4.715,1.921,5.372c1.655,0.87,4.809,0.845,6.258-0.229
		c3.703-2.742,7.401-5.861,10.055-9.578c6.684-9.361,4.581-20.416-4.559-27.357C604.768,495.255,599.046,493.493,593.358,494.22z
		 M832.809,499.759c-2.521,0.314-5.569,0.352-8.427,1.111c-12.526,3.325-23.955,8.61-33.176,18.17
		c-12.287,12.739-21.798,26.8-23.079,45.087c-1.208,17.236,5.96,28.002,22.233,34.328c23.944,9.309,49.368-1.24,61.337-25.125
		c3.458-6.899,5.822-14.52,7.551-22.07c2.301-10.049,1.429-20.234-1.942-30.05c-2.161-6.293-6.788-10.291-11.67-8.531
		c-5.731,2.065-11.155,5.537-16.018,9.297c-4.258,3.292-2.385,7.624,0.091,11.606c12.728,20.47,4.313,37.822-6.889,47.479
		c-9.16,7.897-17.697,4.331-21.179-5.515c-8.807-24.908,4.285-54.703,29.536-61.812c4.063-1.144,7.842-3.528,11.495-5.761
		c1.06-0.648,1.976-2.996,1.612-4.139c-0.453-1.43-2.115-3.033-3.576-3.456C838.372,499.704,835.771,499.938,832.809,499.759z
		 M391.021,498.222c-0.542-0.05-1.083-0.1-1.625-0.15c0-10.478,0.627-21.005-0.191-31.418c-0.699-8.888-8.442-14.362-15.993-11.91
		c-6.912,2.245-13.49,5.538-20.168,8.475c-3.351,1.473-3.457,4.01-2.887,7.446c2.524,15.227,5.851,30.456,6.656,45.801
		c1.336,25.465-4.606,50.134-11.52,74.504c-2.093,7.377-0.222,9.837,7.665,10.223c2.493,0.121,5.014,0.279,7.488,0.056
		c6.266-0.568,12.086-2.708,14.883-8.636c3.097-6.562,6.518-13.424,7.461-20.468C386.08,547.576,388.358,522.873,391.021,498.222z
		 M448.891,506.041c-11.91,5.249-23.364,10.193-34.687,15.42c-1.392,0.643-2.922,2.764-2.979,4.254
		c-0.791,20.857-4.563,41.195-10.048,61.278c-3.844,14.073-2.32,15.821,12.527,15.169c7.326-0.322,12.777-3.483,15.681-10.384
		c2.195-5.215,4.359-10.451,6.289-15.768c3.167-8.728,4.805-18.325,9.485-26.116c7.634-12.71,5.07-26.122,5.613-39.4
		C450.826,509.17,449.666,507.797,448.891,506.041z M425.864,463.208c-5.173,2.457-12.956,5.999-20.524,9.951
		c-0.909,0.474-1.134,3.258-0.856,4.826c1.069,6.031,2.589,11.982,3.715,18.005c0.953,5.095,2.703,6.386,7.447,4.411
		c8.438-3.513,16.77-7.281,25.161-10.907c2.891-1.25,4.075-2.983,2.826-6.267c-1.112-2.923-1.548-6.096-2.444-9.11
		C438.987,466.716,435.358,463.288,425.864,463.208z"/>
	<path fill-rule="evenodd" clip-rule="evenodd" d="M337.403,577.423c4.28,1.499,9.258,2.745,13.78,4.935
		c8.77,4.242,17.897,8.147,25.791,13.729c28.344,20.037,36.669,52.212,21.488,83.459c-14.067,28.955-36.824,49.794-65.282,63.952
		c-16.591,8.255-34.28,14.304-52.249,21.663c4.665,3.316,9.991,6.792,14.961,10.72c5.454,4.31,11.276,8.449,15.695,13.707
		c7.837,9.324,7.958,20.684,1.509,28.977c-6.556,8.43-18.603,11.887-29.077,6.599c-17.234-8.702-34.888-17.093-50.672-28.053
		c-63.241-43.914-108.185-103.121-140.835-172.265c-25.377-53.737-41.756-110.013-48.294-169.091
		c-0.449-4.057,0.064-8.429,1.092-12.405c4.861-18.815,27.555-36.738,46.969-37.453c18.083-0.667,29.974,8.434,32.594,26.373
		c2.119,14.506,2.565,29.25,4.279,43.826c8.793,74.787,31.456,144.666,74.332,207.209c17.74,25.877,38.468,49.155,62.301,69.654
		c3.708,3.19,6.801,3.645,11.309,2.002c29.041-10.587,56.043-24.241,75.876-49.012c13.381-16.71,19.276-35.989,18.703-57.208
		c-0.39-14.438-8.014-24.959-19.52-32.977c-14.861-10.354-31.896-15.109-49.273-18.911c-4.779-1.045-9.716-1.459-14.416-2.756
		c-4.435-1.227-9.084-2.573-12.872-5.046c-6.087-3.973-5.515-10.132,0.7-13.911c1.385-0.841,2.852-1.7,4.397-2.102
		c24.412-6.348,42.056-22.379,57.975-40.722c16.933-19.511,29.445-41.207,32.918-67.418c3.953-29.82-11.502-51.833-41.237-57.163
		c-25.801-4.625-51.761-2.74-77.273,1.612c-28.225,4.816-56.082,11.78-84.129,17.659c-4.519,0.947-9.235,1.735-13.801,1.494
		c-7.857-0.417-11.582-7.408-7.138-13.918c2.757-4.036,6.816-7.832,11.155-10.037c32.667-16.602,67.336-27.376,103.664-31.594
		c23.769-2.76,47.808-3.932,71.747-4.269c22.223-0.313,44.008,3.192,64.327,13.481c29.229,14.802,40.166,37.736,31.479,69.344
		c-8.288,30.161-25.788,55.276-46.221,78.22C369.486,546.197,353.299,561.313,337.403,577.423z"/>
	<path fill-rule="evenodd" clip-rule="evenodd" d="M1140.939,616.69c3.6-2.919,6.637-4.992,9.205-7.536
		c10.07-9.969,22.706-15.345,35.844-19.329c10.731-3.255,17.344,2.218,25.723,15.585c2.43,3.874,3.613,8.529,5.972,14.303
		c5.933-4.787,11.229-9.421,16.888-13.553c11.42-8.335,24.073-13.123,38.439-11.134c9.216,1.274,17.335,10.108,16.69,19.333
		c-0.589,8.434-1.613,17.473-5.211,24.907c-5.324,10.997-12.669,21.128-19.98,31.014c-4.42,5.973-4.438,10.36,0.219,16.031
		c5.386,6.561,10.612,12.964,19.143,15.489c0.442,0.133,0.866,0.354,1.271,0.582c4.764,2.671,10.808,6.004,9.049,11.656
		c-1.115,3.587-7.246,7.092-11.642,7.924c-17.721,3.354-34.857,1.144-50.315-8.957c-13.675-8.938-19.664-25.445-14.733-41.019
		c0.742-2.344,3.228-4.252,5.174-6.076c5.724-5.367,11.885-10.313,17.198-16.05c1.487-1.607,0.637-5.377,0.859-8.153
		c-2.641,0.803-6.354,0.768-7.748,2.546c-9.888,12.604-19.8,25.244-28.68,38.557c-5.638,8.45-9.457,18.104-14.196,27.162
		c-5.393,10.305-15.308,13.663-25.971,8.871c-12.202-5.483-18.201-15.84-18.269-28.324c-0.055-10.7,2.657-21.479,4.773-32.102
		c1.07-5.36,3.532-10.444,4.136-16.52c-2.117,2.252-4.346,4.412-6.339,6.771c-13.611,16.107-24.896,33.667-32.775,53.296
		c-3.771,9.396-9.853,16.499-20.573,15.913c-11.116-0.606-19.037-7.296-23.513-17.38c-5.472-12.328-4.807-25.04-0.578-37.541
		c6.33-18.717,12.633-37.463,19.75-55.884c2.269-5.869,6.398-11.44,10.896-15.923c7.265-7.238,17.214-7.022,24.214,0.542
		c4.649,5.024,7.865,11.402,11.55,17.286C1138.707,611.053,1139.482,613.454,1140.939,616.69z"/>
	<path fill-rule="evenodd" clip-rule="evenodd" d="M831.172,644.472c-2.892,5.427-5.948,10.773-8.641,16.298
		c-6.18,12.681-11.644,25.743-18.406,38.098c-7.015,12.818-20.073,17.772-33.224,21.171c-8.626,2.231-14.875-4.117-13.837-13.471
		c0.868-7.809,2.677-15.609,4.951-23.148c9.121-30.234,18.197-60.493,28.092-90.48c4.868-14.756,11.552-28.908,17.28-43.385
		c2.852-7.204,7.94-12.398,15.119-14.461c8.418-2.417,17.166-4.494,25.862-4.939c11.412-0.584,17.324,8.365,13.811,19.241
		c-3.795,11.755-7.749,23.457-11.587,35.197c-0.699,2.137-1.182,4.345-1.765,6.521c0.792,0.666,1.584,1.333,2.377,2.002
		c2.938-3.667,5.807-7.395,8.828-10.992c14.665-17.449,31.672-32.201,51.969-42.646c6.473-3.33,13.955-5.371,21.201-6.372
		c10.419-1.438,17.614,6.872,13.682,16.619c-2.999,7.432-8.255,14.786-14.389,19.927c-9.205,7.716-20.042,13.487-30.216,20.038
		c-6.267,4.036-12.682,7.843-18.856,12.012c-4.959,3.348-6.547,7.955-5.004,14c5.124,20.079,12.934,39.075,25.411,55.559
		c5.874,7.761,14.563,13.36,21.794,20.136c3.602,3.376,9.894,7.65,9.447,10.712c-0.708,4.858-5.112,10.655-9.582,13.245
		c-31.338,18.16-68.904,4.583-82.163-29.824c-4.226-10.964-6.032-22.861-8.929-34.34c-0.533-2.113-0.981-4.248-1.472-6.375
		C832.342,644.697,831.757,644.587,831.172,644.472z"/>
	<path fill-rule="evenodd" clip-rule="evenodd" d="M155.606,282.007c-1.575,27.239-9.804,57.145-34.131,80.689
		c-23.302,22.554-52.571,17.801-67.324-11.104c-2.42-4.741-4.821-9.692-6.012-14.829c-9.924-42.83-2.077-81.816,26.97-115.397
		c11.283-13.044,25.795-19.658,43.706-15.127c10.866,2.749,18.288,9.814,24.043,18.934
		C151.177,238.354,155.658,256.753,155.606,282.007z"/>
	<path fill-rule="evenodd" clip-rule="evenodd" d="M611.597,570.08c8.538-1.132,16.194,1.068,23.131,5.939
		c13.231,9.291,16.983,23.634,8.399,37.283c-3.839,6.107-9.967,10.943-15.671,15.604c-1.709,1.396-5.995,1.164-8.164-0.027
		c-1.651-0.905-2.216-4.449-2.58-6.922c-1.232-8.38-1.881-16.856-3.424-25.172c-0.339-1.826-3.595-4.505-5.24-4.326
		c-1.896,0.206-4.1,2.849-5.125,4.944c-5.414,11.073-0.774,24.469,11.235,34.358c4.819,3.969,9.697,8.042,13.716,12.775
		c18.76,22.094,13.563,53.154-11.222,70.588c-16.358,11.508-33.222,11.486-49.882,1.903c-7.928-4.559-14.897-11.043-21.617-17.381
		c-9.207-8.683-9.246-20.5,4.535-27.708c3.068-1.604,6.06-3.438,9.281-4.648c5.617-2.109,10.916-1.278,13.908,4.326
		c2.603,4.876,4.418,10.205,6.252,15.449c3.723,10.644,9.076,15.216,15.256,12.681c4.9-2.01,6.259-12.206,2.565-20.381
		c-4.847-10.719-13.369-18.196-22.189-25.575c-10.93-9.143-19.438-19.893-20.945-34.938c-1.757-17.557,12.567-36.342,28.819-42.939
		c9.077-3.686,18.988-5.312,28.523-7.866C611.306,568.725,611.452,569.402,611.597,570.08z"/>
	<path fill-rule="evenodd" clip-rule="evenodd" d="M721.95,568.854c7.958-1.018,15.963,1.448,23.147,6.903
		c12.787,9.712,15.729,25.179,6.377,38.275c-3.711,5.2-8.886,9.565-14.067,13.401c-2.028,1.503-6.439,1.537-8.755,0.32
		c-1.75-0.919-2.266-4.833-2.688-7.515c-1.315-8.341-2.091-16.773-3.653-25.061c-0.307-1.629-3.296-3.949-4.873-3.819
		c-1.769,0.146-4.091,2.4-4.864,4.278c-3.546,8.604-4.375,17.516,2.034,25.065c5.376,6.337,11.63,11.972,17.799,17.584
		c27.333,24.876,18.993,67.181-18.644,82.371c-10.168,4.104-21.789,3.688-31.34-1.603c-10.202-5.651-20.036-12.815-28.172-21.137
		c-10.181-10.415-8.167-18.767,4.198-26.628c3.103-1.973,6.409-3.748,9.831-5.067c5.61-2.163,10.792-1.226,13.905,4.315
		c2.254,4.014,3.605,8.526,5.496,12.754c1.884,4.221,3.197,9.041,6.178,12.303c2,2.189,6.762,3.344,9.736,2.637
		c2.044-0.485,4.189-4.851,4.477-7.667c1.142-11.138-4.824-19.604-12.062-27.077c-6.946-7.171-15.031-13.295-21.587-20.779
		c-20.6-23.517-11.56-48.666,10.182-63.847C695.264,571.42,707.592,567.792,721.95,568.854z"/>
	<path fill-rule="evenodd" clip-rule="evenodd" d="M1028.859,580.633c4.146,0.25,7.785-0.079,11.055,0.869
		c2.045,0.59,4.369,2.832,5.003,4.832c0.508,1.6-0.773,4.884-2.255,5.793c-5.113,3.121-10.398,6.458-16.085,8.06
		c-35.327,9.944-53.644,51.631-41.322,86.479c4.87,13.776,16.814,18.765,29.63,7.716c15.674-13.511,27.445-37.79,9.64-66.429
		c-3.465-5.571-6.085-11.632-0.128-16.237c6.803-5.261,14.391-10.117,22.411-13.008c6.829-2.462,13.303,3.132,16.326,11.937
		c4.717,13.733,5.937,27.983,2.718,42.042c-2.418,10.563-5.727,21.227-10.563,30.879c-16.746,33.417-52.316,48.176-85.817,35.151
		c-22.768-8.851-32.796-23.913-31.106-48.028c1.792-25.585,15.101-45.257,32.29-63.08c12.9-13.375,28.89-20.769,46.416-25.423
		C1021.067,581.124,1025.333,581.071,1028.859,580.633z"/>
	<path fill-rule="evenodd" clip-rule="evenodd" d="M455.279,682.775c-1.32,9.854-6.105,19.455-10.438,28.636
		c-3.914,8.293-27.812,12.174-31.3,12.004c-11.033-0.539-13.652-3.981-10.723-14.303c9.672-34.096,17.986-68.609,16.117-104.236
		c-1.127-21.471-5.782-42.777-9.313-64.082c-0.796-4.806-0.647-8.354,4.04-10.417c9.344-4.108,18.547-8.717,28.217-11.855
		c10.564-3.432,21.397,4.227,22.375,16.663c1.145,14.569,0.268,29.298,0.268,43.956C465.279,579.213,459.88,648.402,455.279,682.775
		z"/>
	<path fill-rule="evenodd" clip-rule="evenodd" d="M539.708,587.321c1.084,2.456,2.707,4.378,2.631,6.23
		c-0.759,18.578-16.692,79.454-21.124,91.664c-2.699,7.438-5.728,14.764-8.798,22.061c-4.063,9.655-11.69,14.077-21.939,14.528
		c-20.773,0.912-22.905-1.534-17.527-21.223c7.675-28.1,12.951-56.554,14.059-85.734c0.079-2.085,2.22-5.053,4.167-5.953
		C507.019,601.583,523.044,594.665,539.708,587.321z"/>
	<path fill-rule="evenodd" clip-rule="evenodd" d="M514.407,537.837c13.284,0.112,18.361,4.909,21.44,15.262
		c1.255,4.218,1.865,8.655,3.42,12.746c1.747,4.594,0.091,7.02-3.954,8.769c-11.741,5.073-23.397,10.344-35.203,15.26
		c-6.637,2.764-9.086,0.957-10.418-6.171c-1.575-8.427-3.702-16.753-5.198-25.191c-0.389-2.192-0.074-6.089,1.198-6.751
		C496.281,546.229,507.17,541.275,514.407,537.837z"/>
</g>
</svg>
