<?xml version="1.0" encoding="UTF-8"?>
<!-- Generated by Bliss Online --><svg xmlns="http://www.w3.org/2000/svg" xmlns:xlink="http://www.w3.org/1999/xlink" contentScriptType="text/ecmascript" width="246.58589636176694" zoomAndPan="magnify" contentStyleType="text/css" height="246.58589636176694" preserveAspectRatio="xMidYMid meet" xml:space="preserve" version="1.0">

    
    
    
    
    
    
    
    
    
    
    
    
    
    
    
    
    
    <g class="translate-contents" transform="translate(78.479,11.343)"><g transform="translate(56.28, 123.145)">
        <polyline style="fill:none;fill-rule:nonzero;stroke:#000000;stroke-width:3.71000000000000000;stroke-linecap:round;stroke-linejoin:bevel;stroke-miterlimit:4;stroke-dasharray:none" points="-11.5,-11.5 33.05,-11.5" id="polyline36"/>
        <polyline style="fill:none;fill-rule:nonzero;stroke:#000000;stroke-width:3.71000000000000000;stroke-linecap:round;stroke-linejoin:bevel;stroke-miterlimit:4;stroke-dasharray:none" points="33.05,-11.5 33.05,33.109993" id="polyline38"/>
        <polyline style="fill:none;fill-rule:nonzero;stroke:#000000;stroke-width:3.71000000000000000;stroke-linecap:round;stroke-linejoin:bevel;stroke-miterlimit:4;stroke-dasharray:none" points="33.05,33.109993 -11.5,33.109993" id="polyline40"/>
        <polyline style="fill:none;fill-rule:nonzero;stroke:#000000;stroke-width:3.71000000000000000;stroke-linecap:round;stroke-linejoin:bevel;stroke-miterlimit:4;stroke-dasharray:none" points="-11.5,33.109993 -11.5,-11.5" id="polyline42"/></g><g transform="translate(11.5, 123.145)">
        <ellipse xmlns:sodipodi="http://sodipodi.sourceforge.net/DTD/sodipodi-0.dtd" transform="translate(0,1.1767787)translate(-13.0 -101.74)translate(-11.5 -11.5)" style="fill:#000000;fill-rule:nonzero;stroke:#000000;stroke-width:3.71000004;stroke-linecap:round;stroke-linejoin:miter" sodipodi:cx="24.129999" sodipodi:cy="144.91" rx="1.24" cx="24.129999" cy="144.91" id="ellipse38" ry="1.24" sodipodi:rx="1.24" sodipodi:ry="1.24"></ellipse>
        <path xmlns:sodipodi="http://sodipodi.sourceforge.net/DTD/sodipodi-0.dtd" sodipodi:nodetypes="ccccccc" d="M 12.944561,112.7092 C 12.79224,109.63634 13.986825,107.0104 16.104282,105.06579 C 19.40538,101.51687 25.212982,100.60611 29.391546,103.11645 C 33.426423,105.203 35.703458,109.89235 35.079382,114.47059 C 34.578171,117.91809 33.117724,120.76404 29.890348,122.67981 C 28.05565,123.51595 26.600441,123.81623 24.129382,123.81254 C 24.057502,125.60177 24.113053,133.12739 24.123955,135.06799" id="path2420" style="fill:none;fill-rule:evenodd;stroke:#000000;stroke-width:3.71000000000000000;stroke-linecap:round;stroke-linejoin:miter;stroke-opacity:1;stroke-miterlimit:4;stroke-dasharray:none" transform="translate(-13.0 -101.74)translate(-11.5 -11.5)"></path></g></g></svg>